<svg width="20" height="20" viewBox="0 0 20 20" fill="none" xmlns="http://www.w3.org/2000/svg">
<rect x="0.5" y="0.5" width="19" height="19" rx="1.5" stroke="#FF3014"/>
<path d="M13.8648 15.7591C13.7109 15.7591 13.5438 15.6941 13.3655 15.5647C12.5337 14.9608 11.7022 14.3565 10.8711 13.7518L10.6916 13.6213C10.4183 13.4227 10.3971 13.4236 10.1246 13.6487C9.62997 14.0575 9.18815 14.4181 8.77382 14.7511C8.67935 14.827 8.39174 15.0582 8.08798 14.9655C7.78514 14.8731 7.67647 14.5239 7.64107 14.4092C7.55738 14.1401 7.47351 13.8711 7.38944 13.6022C7.13983 12.8026 6.88169 11.9759 6.63563 11.1597C6.60656 11.0631 6.57912 11.0402 6.49988 11.0116C5.88514 10.7893 5.26249 10.5586 4.66032 10.3355C4.44498 10.2559 4.22976 10.1763 4.01466 10.0966C3.85696 10.0384 3.61873 9.95028 3.45868 9.72612C3.42658 9.68111 3.40932 9.6272 3.4093 9.57192C3.4093 9.18771 3.56081 8.96572 3.91585 8.82913C8.08731 7.22528 11.8492 5.77825 15.6449 4.31143C16.1493 4.11634 16.4196 4.36311 16.5572 4.60453C16.58 4.64459 16.592 4.68989 16.592 4.73599C16.592 4.8805 14.4754 15.0413 14.454 15.144C14.39 15.4509 14.2549 15.6461 14.0527 15.7243C13.9928 15.7475 13.9291 15.7593 13.8648 15.7591ZM10.4132 12.9437C10.5935 12.9437 10.777 13.027 11.0039 13.1919L11.1833 13.3224C12.0146 13.9268 12.846 14.531 13.6775 15.135C13.7865 15.2142 13.8438 15.2259 13.8604 15.2275C13.8717 15.2151 13.9062 15.1679 13.9338 15.0358C14.5862 11.9051 15.8798 5.65285 16.0459 4.79524C16.01 4.76187 15.9585 4.7594 15.836 4.80674C12.0398 6.27364 8.27771 7.72068 4.10589 9.32444C3.99289 9.36785 3.95576 9.39298 3.94443 9.47426C4.02197 9.52867 4.10761 9.57048 4.1982 9.59816C4.41353 9.6778 4.62887 9.75752 4.84421 9.83731C5.44536 10.0601 6.06705 10.2904 6.67979 10.5119C6.7925 10.5485 6.89412 10.613 6.97519 10.6994C7.05626 10.7858 7.11415 10.8913 7.14346 11.0062C7.38868 11.8198 7.64647 12.6453 7.89567 13.4436C7.97974 13.7127 8.0637 13.9819 8.14753 14.2511C8.19072 14.3901 8.22913 14.4399 8.24342 14.4547C8.26382 14.4502 8.32466 14.4303 8.44098 14.3368C8.85333 14.0053 9.29333 13.6462 9.78612 13.2389C10.0257 13.0416 10.2176 12.9437 10.4132 12.9437ZM8.27156 13.4536H8.26439C7.95072 13.4494 7.87253 13.1752 7.84311 13.072C7.7721 12.823 7.7002 12.5743 7.6274 12.3258C7.50196 11.8947 7.37222 11.449 7.2516 11.0075C7.17386 10.723 7.18235 10.3213 7.6643 10.0233C9.28576 9.02046 13.2947 6.5551 13.3467 6.5274C13.3775 6.51106 13.4112 6.50091 13.4459 6.49754C13.6551 6.47749 13.7831 6.58926 13.8337 6.70068C13.865 6.77866 13.8712 6.86445 13.8515 6.94612C13.8317 7.0278 13.7871 7.1013 13.7237 7.15643C13.4727 7.39293 10.4116 10.2413 9.1366 11.4189C8.93859 11.6019 8.84174 11.7955 8.82244 12.0467C8.80032 12.3353 8.75607 12.6219 8.71267 12.8987L8.69253 13.0293C8.64218 13.3787 8.43749 13.4536 8.27169 13.4536H8.27156ZM12.1919 7.85798C10.9203 8.63944 9.08218 9.77068 7.94364 10.4748C7.73718 10.6025 7.72116 10.7113 7.76386 10.8675C7.88333 11.3047 8.0124 11.7483 8.13722 12.1773C8.16967 12.2889 8.20212 12.4006 8.23457 12.5122C8.25899 12.3431 8.2805 12.173 8.2932 12.0061C8.31867 11.6292 8.49238 11.2777 8.77634 11.0286C9.587 10.28 11.1195 8.85594 12.192 7.85798H12.1919Z" fill="#FF3014"/>
</svg>
